<?xml version="1.0" encoding="UTF-8" standalone="no"?>
<!DOCTYPE svg PUBLIC "-//W3C//DTD SVG 1.1//EN" "http://www.w3.org/Graphics/SVG/1.1/DTD/svg11.dtd">
<svg width="100%" height="100%" viewBox="0 0 1000 300" version="1.1" xmlns="http://www.w3.org/2000/svg" xmlns:xlink="http://www.w3.org/1999/xlink" xml:space="preserve" xmlns:serif="http://www.serif.com/" style="fill-rule:evenodd;clip-rule:evenodd;stroke-linejoin:round;stroke-miterlimit:2;">
    <g transform="matrix(1,0,0,1,-0.75,-21.95)">
        <g transform="matrix(1,0,0,1,-122.5,-100)">
            <path d="M235.4,240.8C225.7,240.8 217.8,244.2 212,250.9L212,242.9L189.7,242.9L189.7,363.9L212.4,357.5L212.4,316.1C218.2,322.5 226,325.7 235.4,325.7C257.7,325.7 274.6,307.4 274.6,283.2C274.6,259 257.7,240.8 235.4,240.8ZM251.6,283.3C251.6,296 243.3,304.9 231.4,304.9C219.6,304.9 211.3,296 211.3,283.3C211.3,270.6 219.6,261.7 231.4,261.7C243.3,261.8 251.6,270.6 251.6,283.3ZM324.6,241.4C300.6,241.4 283.9,258.9 283.9,284C283.9,309.2 300.7,326.1 325.7,326.1C339.6,326.1 351.1,322 359.9,313.9L360.2,313.6L347,299.1L346.7,299.4C341.1,304.1 333.7,306.9 326.9,306.9C316.3,306.9 309.2,301.4 307,291.3L363.3,291.3L363.4,290.9C363.6,289.1 363.8,286.1 363.8,283.6C363.7,258.3 348,241.4 324.6,241.4ZM324.5,260.8C333.3,260.8 339.2,266.1 341.3,275.8L307.2,275.8C309.2,265.9 315.2,260.8 324.5,260.8ZM413.8,241.4C389.8,241.4 373.1,258.9 373.1,284C373.1,309.2 389.9,326.1 414.9,326.1C428.8,326.1 440.3,322 449.1,313.9L449.4,313.6L436.2,299.1L435.9,299.4C430.3,304.1 422.9,306.9 416.1,306.9C405.5,306.9 398.4,301.4 396.2,291.3L452.5,291.3L452.6,290.9C452.8,289.1 453,286.1 453,283.6C452.9,258.7 436.8,241.4 413.8,241.4ZM413.7,260.8C422.5,260.8 428.4,266.1 430.5,275.8L396.4,275.8C398.4,265.9 404.4,260.8 413.7,260.8ZM510.9,241.4C501.2,241.4 493.9,244.7 488.9,251.3L488.9,243.6L467.2,243.6L467.2,324L489.6,324L489.6,280.2C489.6,269.3 495.7,262.8 505.9,262.8C510.2,262.8 515.3,263.8 518.7,265.3L519.3,265.5L522.6,243.6L522.7,243.2L522.3,243.1C518.9,241.9 515.2,241.4 510.9,241.4ZM530.6,243.5L553,243.5L553,324L530.6,324L530.6,243.5ZM628.6,251.5C622.7,244.8 614.4,241.3 604.4,241.3C583.2,241.3 567.3,259 567.3,282.4C567.3,305.8 583.2,323.4 604.4,323.4C614.5,323.4 622.6,320.1 628.4,313.4L628.4,317.7C628.4,330.4 619.9,338.3 606.2,338.3C597,338.3 588.3,335.6 580.2,330.2L579.7,329.9L571.7,348.2L572,348.4C580.6,354.5 593.7,358.1 607.1,358.1C633.9,358.1 650.5,342.2 650.5,316.7L650.5,243.2L628.6,243.2L628.6,251.5ZM629.3,282.5C629.3,294.3 621.1,302.9 609.8,302.9C598.5,302.9 590.2,294.3 590.2,282.5C590.2,270.6 598.4,262 609.8,262C621.1,262 629.3,270.6 629.3,282.5ZM705,241.4C680.2,241.4 661.6,259.6 661.6,283.7C661.6,307.8 680.3,326 705,326C729.8,326 748.6,307.8 748.6,283.7C748.6,259.6 729.9,241.4 705,241.4ZM705,305.2C693,305.2 684.4,296.2 684.4,283.7C684.4,271.3 693.1,262.2 705,262.2C717,262.2 725.7,271.2 725.7,283.7C725.7,296.1 717,305.2 705,305.2ZM807.6,241.4C797.7,241.4 789.8,245 784.7,251.9L784.7,243.5L762.9,243.5L762.9,324L785.3,324L785.3,279.9C785.3,269.3 791.7,262.4 801.7,262.4C811.3,262.4 816.8,268.7 816.8,279.8L816.8,324L839,324L839,272.9C839,254.3 826.1,241.4 807.6,241.4ZM541.7,204.2C534.1,204.2 528.2,210.2 528.2,217.9C528.2,225.6 534,231.4 541.7,231.4C549.3,231.4 555.3,225.5 555.3,217.9C555.3,210.2 549.3,204.2 541.7,204.2Z" style="fill:white;fill-rule:nonzero;"/>
        </g>
        <g transform="matrix(1,0,0,1,-67.5,-100)">
            <g transform="matrix(1,0,0,1,-55,0)">
                <ellipse cx="965.4" cy="271.3" rx="91.4" ry="91.3" style="fill:rgb(70,225,200);"/>
            </g>
            <g transform="matrix(1,0,0,1,-55,0)">
                <path d="M1017.4,282.4C1010,275.1 1001.5,271.6 988.8,278C986,279.4 980.3,283.9 977.5,285.8L970.6,274.2C975.2,271.8 986.4,266.1 992.2,256.5C999.3,244.7 994.8,227.8 985.1,219.1C980.5,215.1 974.3,211.7 968.2,211.2C961.5,210.4 954.5,212.2 949.9,214.1C947.6,215.1 943.7,217.2 941.3,218.5L940.3,219C940,219.2 939.8,219.3 939.6,219.4C935.3,221.8 901.6,242.1 901.6,242.1L946.2,325.6C946.2,325.6 964.3,312.2 974.2,304.7C982,298.8 987,294.7 989.5,292.8C1002,283.5 1012.5,292.4 1011,301.5C1009.4,310.6 999.5,314.3 992,310.3C988.5,308.5 985.9,306.6 985.9,306.6L979.3,317.6C982,319.3 988.9,324.3 995.7,324.9C1005.5,325.7 1014.7,319.9 1019.2,314C1027.4,303 1025,290.5 1017.4,282.4C1017.3,282.3 1017.4,282.4 1017.4,282.4ZM953.6,269.7L967.2,293.6L950.5,305.5L918.9,247.3L951.1,228.2C953.2,227.1 955.2,226.2 957.1,225.5C957.3,225.4 957.4,225.4 957.6,225.4C958.9,224.9 960.2,224.7 961.5,224.4C965.3,223.7 969,224.9 972.1,226.4C978.8,229.4 983.3,238.7 981.8,245.9C981.3,248.4 981,254.3 971.1,260.2C963,265 953.6,269.7 953.6,269.7Z" style="fill:white;fill-rule:nonzero;"/>
            </g>
        </g>
    </g>
</svg>
